<svg width="120" height="28" viewBox="0 0 120 28" fill="none" xmlns="http://www.w3.org/2000/svg">
<path fill-rule="evenodd" clip-rule="evenodd" d="M63.9849 8.27594C64.8401 8.27594 65.418 8.71664 65.7185 9.59805L69.2376 20.0548L72.878 9.27182C72.9705 8.9742 73.1554 8.73382 73.4327 8.55066C73.7101 8.36751 74.0684 8.27594 74.5075 8.27594C74.7618 8.27594 74.9987 8.32173 75.2183 8.4133C75.4379 8.50488 75.6285 8.63365 75.7903 8.79963C75.9521 8.96562 76.0822 9.15735 76.1804 9.37484C76.2786 9.59233 76.3277 9.82127 76.3277 10.0617C76.3277 10.2791 76.2815 10.5081 76.1891 10.7485L70.9364 26.3563C70.8324 26.6883 70.6417 26.963 70.3644 27.1805C70.087 27.398 69.7114 27.5067 69.2376 27.5067C68.8331 27.5067 68.4748 27.3922 68.1628 27.1633C67.8507 26.9344 67.6485 26.6654 67.556 26.3563L63.9849 15.745L60.4138 26.3563C60.3098 26.6883 60.1018 26.963 59.7897 27.1805C59.4777 27.398 59.1194 27.5067 58.7149 27.5067C58.3105 27.5067 57.9551 27.398 57.6488 27.1805C57.3426 26.963 57.1316 26.6883 57.0161 26.3563L51.7634 10.7485C51.6825 10.4966 51.6421 10.2677 51.6421 10.0617C51.6421 9.82127 51.6883 9.59233 51.7808 9.37484C51.8732 9.15735 52.0004 8.96562 52.1622 8.79963C52.324 8.63365 52.5146 8.50488 52.7342 8.4133C52.9538 8.32173 53.1907 8.27594 53.445 8.27594C53.861 8.27594 54.2106 8.37324 54.4938 8.56783C54.7769 8.76243 54.9705 8.99709 55.0745 9.27182L58.7149 20.0376L62.234 9.59805C62.5345 8.71664 63.1181 8.27594 63.9849 8.27594ZM94.3046 16.1056C94.1081 15.476 93.8163 14.9008 93.4292 14.38C93.042 13.8592 92.5913 13.4127 92.077 13.0407C91.5627 12.6687 90.9964 12.3796 90.3781 12.1736C89.7598 11.9676 89.1213 11.8645 88.4625 11.8645C87.8038 11.8645 87.1624 11.9676 86.5383 12.1736C85.9142 12.3796 85.3422 12.6687 84.8221 13.0407C84.302 13.4127 83.8513 13.8592 83.4699 14.38C83.0886 14.9008 82.8054 15.476 82.6205 16.1056H94.3046ZM93.5245 22.0981C94.0446 22.0981 94.4751 22.2669 94.816 22.6046C95.1569 22.9423 95.3274 23.3687 95.3274 23.8838C95.3274 24.3874 95.154 24.8167 94.8073 25.1715C93.016 26.7283 90.9011 27.5067 88.4625 27.5067C85.7813 27.5067 83.4931 26.5681 81.5977 24.6908C79.7024 22.8135 78.7547 20.547 78.7547 17.8913C78.7547 15.2356 79.7024 12.9692 81.5977 11.0919C83.4931 9.21457 85.7813 8.27594 88.4625 8.27594C91.1207 8.27594 93.4089 9.21457 95.3274 11.0919C96.2751 12.0191 96.9858 13.0521 97.4596 14.1911C97.9335 15.3301 98.1704 16.5635 98.1704 17.8913C98.1704 18.4064 97.9941 18.8328 97.6417 19.1705C97.2892 19.5082 96.8587 19.677 96.3502 19.677H82.6205C82.817 20.3066 83.1059 20.8818 83.4873 21.4027C83.8687 21.9235 84.3165 22.3699 84.8308 22.7419C85.3451 23.114 85.9113 23.403 86.5296 23.609C87.1479 23.8151 87.7922 23.9181 88.4625 23.9181C89.2253 23.9181 89.9245 23.8036 90.5601 23.5747C91.1958 23.3458 91.7852 23.0024 92.3284 22.5445C92.6751 22.2583 93.0738 22.1095 93.5245 22.0981ZM110.097 23.9181C110.941 23.9181 111.732 23.7579 112.472 23.4373C113.212 23.1168 113.856 22.6819 114.405 22.1324C114.954 21.5829 115.387 20.9448 115.705 20.2179C116.023 19.491 116.182 18.7155 116.182 17.8913C116.182 17.0671 116.023 16.2916 115.705 15.5647C115.387 14.8379 114.954 14.1997 114.405 13.6503C113.856 13.1008 113.212 12.6658 112.472 12.3453C111.732 12.0248 110.941 11.8645 110.097 11.8645C109.242 11.8645 108.445 12.0248 107.705 12.3453C106.965 12.6658 106.324 13.0979 105.781 13.6417C105.237 14.1854 104.807 14.8236 104.489 15.5562C104.171 16.2888 104.012 17.0671 104.012 17.8913C104.012 18.7155 104.171 19.4939 104.489 20.2265C104.807 20.9591 105.237 21.5973 105.781 22.141C106.324 22.6847 106.965 23.1168 107.705 23.4373C108.445 23.7579 109.242 23.9181 110.097 23.9181ZM104.012 10.4051C105.734 8.98564 107.763 8.27594 110.097 8.27594C112.755 8.27594 115.044 9.21457 116.962 11.0919C117.91 12.0191 118.62 13.0521 119.094 14.1911C119.568 15.3301 119.805 16.5635 119.805 17.8913C119.805 20.5699 118.857 22.8364 116.962 24.6908C115.044 26.5681 112.755 27.5067 110.097 27.5067C107.416 27.5067 105.128 26.5681 103.232 24.6908C101.337 22.8135 100.389 20.547 100.389 17.8913V1.81989C100.389 1.30478 100.56 0.878389 100.901 0.540704C101.242 0.20302 101.672 0.0341797 102.192 0.0341797C102.701 0.0341797 103.131 0.20302 103.484 0.540704C103.836 0.878389 104.012 1.30478 104.012 1.81989V10.4051Z" fill="#E87D28"/>
<path fill-rule="evenodd" clip-rule="evenodd" d="M9.72518 27.2493C9.55182 27.421 9.30335 27.5069 8.97975 27.5069C8.66771 27.5069 8.41346 27.4096 8.21699 27.215C8.13609 27.1348 8.07831 27.0547 8.04364 26.9746L0.0693417 9.75275C0.0231137 9.63828 0 9.50092 0 9.34066C0 9.04304 0.104012 8.79121 0.312038 8.58517C0.520064 8.37912 0.774314 8.2761 1.0748 8.2761C1.37528 8.2761 1.63531 8.3734 1.85489 8.568C1.92423 8.63668 1.9878 8.72825 2.04558 8.84272L8.97975 23.8668L15.9139 8.84272C15.9602 8.75114 16.0237 8.66529 16.1046 8.58517C16.3242 8.37912 16.5842 8.2761 16.8847 8.2761C17.1852 8.2761 17.4423 8.37626 17.6561 8.57658C17.8699 8.7769 17.9768 9.03159 17.9768 9.34066C17.9768 9.48947 17.9479 9.62683 17.8902 9.75275L9.91586 26.9746C9.86964 27.0776 9.80608 27.1692 9.72518 27.2493ZM21.3572 1.06456C21.3572 0.76694 21.4613 0.515111 21.6693 0.309066C21.8773 0.103021 22.1316 0 22.432 0C22.7325 0 22.9868 0.103021 23.1948 0.309066C23.4028 0.515111 23.5068 0.76694 23.5068 1.06456V11.3324C25.6333 9.29486 27.91 8.2761 30.337 8.2761C32.8333 8.2761 34.9482 9.14605 36.6818 10.886C38.45 12.6259 39.3341 14.7264 39.3341 17.1875V26.4423C39.3341 26.7399 39.2272 26.9918 39.0134 27.1978C38.7996 27.4038 38.5424 27.5069 38.242 27.5069C37.9415 27.5069 37.6872 27.4038 37.4792 27.1978C37.2712 26.9918 37.1672 26.7399 37.1672 26.4423V17.1875C37.1672 15.2988 36.4969 13.7077 35.1562 12.4141C33.8156 11.0749 32.2092 10.4052 30.337 10.4052C28.4648 10.4052 26.8526 11.0749 25.5004 12.4141C24.1714 13.7191 23.5068 15.3102 23.5068 17.1875V26.4423C23.5068 26.7399 23.4028 26.9918 23.1948 27.1978C22.9868 27.4038 22.7325 27.5069 22.432 27.5069C22.1316 27.5069 21.8773 27.4038 21.6693 27.1978C21.4613 26.9918 21.3572 26.7399 21.3572 26.4423V1.06456ZM46.771 3.64011C46.771 4.04075 46.6323 4.37843 46.3549 4.65316C46.0776 4.92789 45.7366 5.06525 45.3321 5.06525C44.9392 5.06525 44.6012 4.92789 44.318 4.65316C44.0349 4.37843 43.8933 4.04075 43.8933 3.64011C43.8933 3.25091 44.0349 2.9161 44.318 2.63565C44.6012 2.3552 44.9392 2.21497 45.3321 2.21497C45.7366 2.21497 46.0776 2.3552 46.3549 2.63565C46.6323 2.9161 46.771 3.25091 46.771 3.64011ZM44.2573 9.34066C44.2573 9.04304 44.3614 8.79121 44.5694 8.58517C44.7774 8.37912 45.0317 8.2761 45.3321 8.2761C45.6326 8.2761 45.8898 8.37912 46.1036 8.58517C46.3174 8.79121 46.4243 9.04304 46.4243 9.34066V26.4423C46.4243 26.7399 46.3174 26.9918 46.1036 27.1978C45.8898 27.4038 45.6326 27.5069 45.3321 27.5069C45.0317 27.5069 44.7774 27.4038 44.5694 27.1978C44.3614 26.9918 44.2573 26.7399 44.2573 26.4423V9.34066Z" fill="#050D1F"/>
</svg>
